<mxfile host="app.diagrams.net" modified="2022-08-05T03:18:12.678Z" agent="5.0 (Macintosh; Intel Mac OS X 10_15_7) AppleWebKit/537.36 (KHTML, like Gecko) Chrome/103.0.0.0 Safari/537.36" etag="JZxKwJm9Z2pESVguu4gt" version="19.0.3" type="github">
  <diagram id="uHuxngHkcp9PVedCGbLy" name="Page-1">
    <mxGraphModel dx="1426" dy="794" grid="1" gridSize="10" guides="1" tooltips="1" connect="1" arrows="1" fold="1" page="1" pageScale="1" pageWidth="827" pageHeight="1169" math="0" shadow="0">
      <root>
        <mxCell id="0" />
        <mxCell id="1" parent="0" />
        <mxCell id="WGHQ0hbwyn-cSJ5vNgxJ-5" value="私有化构建" style="edgeStyle=orthogonalEdgeStyle;rounded=0;orthogonalLoop=1;jettySize=auto;html=1;exitX=1;exitY=0.5;exitDx=0;exitDy=0;entryX=0;entryY=0.5;entryDx=0;entryDy=0;" edge="1" parent="1" source="WGHQ0hbwyn-cSJ5vNgxJ-1" target="WGHQ0hbwyn-cSJ5vNgxJ-2">
          <mxGeometry relative="1" as="geometry" />
        </mxCell>
        <mxCell id="WGHQ0hbwyn-cSJ5vNgxJ-30" style="edgeStyle=orthogonalEdgeStyle;rounded=0;orthogonalLoop=1;jettySize=auto;html=1;exitX=0.5;exitY=0;exitDx=0;exitDy=0;entryX=0.467;entryY=0.975;entryDx=0;entryDy=0;entryPerimeter=0;" edge="1" parent="1" source="WGHQ0hbwyn-cSJ5vNgxJ-1" target="WGHQ0hbwyn-cSJ5vNgxJ-4">
          <mxGeometry relative="1" as="geometry" />
        </mxCell>
        <mxCell id="WGHQ0hbwyn-cSJ5vNgxJ-37" style="edgeStyle=orthogonalEdgeStyle;rounded=0;orthogonalLoop=1;jettySize=auto;html=1;exitX=0.5;exitY=1;exitDx=0;exitDy=0;entryX=0.5;entryY=0;entryDx=0;entryDy=0;" edge="1" parent="1" source="WGHQ0hbwyn-cSJ5vNgxJ-1" target="WGHQ0hbwyn-cSJ5vNgxJ-36">
          <mxGeometry relative="1" as="geometry" />
        </mxCell>
        <mxCell id="WGHQ0hbwyn-cSJ5vNgxJ-1" value="src/private配置目录" style="rounded=1;whiteSpace=wrap;html=1;" vertex="1" parent="1">
          <mxGeometry x="90" y="170" width="120" height="60" as="geometry" />
        </mxCell>
        <mxCell id="WGHQ0hbwyn-cSJ5vNgxJ-6" value="HTML私有化" style="edgeStyle=orthogonalEdgeStyle;rounded=0;orthogonalLoop=1;jettySize=auto;html=1;entryX=0;entryY=0.5;entryDx=0;entryDy=0;" edge="1" parent="1" target="WGHQ0hbwyn-cSJ5vNgxJ-3">
          <mxGeometry relative="1" as="geometry">
            <mxPoint x="450" y="200" as="sourcePoint" />
          </mxGeometry>
        </mxCell>
        <mxCell id="WGHQ0hbwyn-cSJ5vNgxJ-11" style="edgeStyle=orthogonalEdgeStyle;rounded=0;orthogonalLoop=1;jettySize=auto;html=1;exitX=1;exitY=0.5;exitDx=0;exitDy=0;" edge="1" parent="1" source="WGHQ0hbwyn-cSJ5vNgxJ-2" target="WGHQ0hbwyn-cSJ5vNgxJ-10">
          <mxGeometry relative="1" as="geometry">
            <mxPoint x="490" y="200" as="sourcePoint" />
          </mxGeometry>
        </mxCell>
        <mxCell id="WGHQ0hbwyn-cSJ5vNgxJ-12" value="构建自定义配置" style="edgeLabel;html=1;align=center;verticalAlign=middle;resizable=0;points=[];" vertex="1" connectable="0" parent="WGHQ0hbwyn-cSJ5vNgxJ-11">
          <mxGeometry x="0.0518" relative="1" as="geometry">
            <mxPoint as="offset" />
          </mxGeometry>
        </mxCell>
        <mxCell id="WGHQ0hbwyn-cSJ5vNgxJ-14" style="edgeStyle=orthogonalEdgeStyle;rounded=0;orthogonalLoop=1;jettySize=auto;html=1;exitX=1;exitY=0.5;exitDx=0;exitDy=0;entryX=0;entryY=0.5;entryDx=0;entryDy=0;" edge="1" parent="1" source="WGHQ0hbwyn-cSJ5vNgxJ-2" target="WGHQ0hbwyn-cSJ5vNgxJ-13">
          <mxGeometry relative="1" as="geometry">
            <mxPoint x="490" y="200" as="sourcePoint" />
          </mxGeometry>
        </mxCell>
        <mxCell id="WGHQ0hbwyn-cSJ5vNgxJ-15" value="样式主题配置" style="edgeLabel;html=1;align=center;verticalAlign=middle;resizable=0;points=[];" vertex="1" connectable="0" parent="WGHQ0hbwyn-cSJ5vNgxJ-14">
          <mxGeometry x="0.311" y="-4" relative="1" as="geometry">
            <mxPoint as="offset" />
          </mxGeometry>
        </mxCell>
        <mxCell id="WGHQ0hbwyn-cSJ5vNgxJ-2" value="npm构建命令&lt;br&gt;&lt;p style=&quot;margin: 0px; font-variant-numeric: normal; font-variant-east-asian: normal; font-stretch: normal; font-size: 13px; line-height: normal; font-family: &amp;quot;Helvetica Neue&amp;quot;; text-align: start;&quot; class=&quot;p1&quot;&gt;SERVER_PRIVATE 指定构建配置文件&lt;/p&gt;" style="rounded=1;whiteSpace=wrap;html=1;" vertex="1" parent="1">
          <mxGeometry x="330" y="170" width="120" height="60" as="geometry" />
        </mxCell>
        <mxCell id="WGHQ0hbwyn-cSJ5vNgxJ-3" value="HTML replace plugin&lt;br&gt;script window全局注入&lt;br&gt;css header注入" style="rounded=1;whiteSpace=wrap;html=1;" vertex="1" parent="1">
          <mxGeometry x="586.5" y="80" width="180" height="60" as="geometry" />
        </mxCell>
        <mxCell id="WGHQ0hbwyn-cSJ5vNgxJ-32" style="edgeStyle=orthogonalEdgeStyle;rounded=0;orthogonalLoop=1;jettySize=auto;html=1;exitX=0.875;exitY=0.5;exitDx=0;exitDy=0;exitPerimeter=0;entryX=0;entryY=0.5;entryDx=0;entryDy=0;" edge="1" parent="1" source="WGHQ0hbwyn-cSJ5vNgxJ-4" target="WGHQ0hbwyn-cSJ5vNgxJ-31">
          <mxGeometry relative="1" as="geometry" />
        </mxCell>
        <mxCell id="WGHQ0hbwyn-cSJ5vNgxJ-4" value="发布时，上传配置平台，生成config_id" style="ellipse;shape=cloud;whiteSpace=wrap;html=1;" vertex="1" parent="1">
          <mxGeometry x="94" y="30" width="120" height="80" as="geometry" />
        </mxCell>
        <mxCell id="WGHQ0hbwyn-cSJ5vNgxJ-16" style="edgeStyle=orthogonalEdgeStyle;rounded=0;orthogonalLoop=1;jettySize=auto;html=1;exitX=1;exitY=0.5;exitDx=0;exitDy=0;entryX=0;entryY=0.5;entryDx=0;entryDy=0;" edge="1" parent="1" source="WGHQ0hbwyn-cSJ5vNgxJ-8" target="WGHQ0hbwyn-cSJ5vNgxJ-9">
          <mxGeometry relative="1" as="geometry" />
        </mxCell>
        <mxCell id="WGHQ0hbwyn-cSJ5vNgxJ-8" value="页面初始化" style="rounded=1;whiteSpace=wrap;html=1;" vertex="1" parent="1">
          <mxGeometry x="40" y="720" width="120" height="60" as="geometry" />
        </mxCell>
        <mxCell id="WGHQ0hbwyn-cSJ5vNgxJ-26" style="edgeStyle=orthogonalEdgeStyle;rounded=0;orthogonalLoop=1;jettySize=auto;html=1;exitX=0.5;exitY=0;exitDx=0;exitDy=0;entryX=0;entryY=0.5;entryDx=0;entryDy=0;" edge="1" parent="1" source="WGHQ0hbwyn-cSJ5vNgxJ-9" target="WGHQ0hbwyn-cSJ5vNgxJ-20">
          <mxGeometry relative="1" as="geometry" />
        </mxCell>
        <mxCell id="WGHQ0hbwyn-cSJ5vNgxJ-29" style="edgeStyle=orthogonalEdgeStyle;rounded=0;orthogonalLoop=1;jettySize=auto;html=1;exitX=1;exitY=0.5;exitDx=0;exitDy=0;entryX=0;entryY=0.5;entryDx=0;entryDy=0;" edge="1" parent="1" source="WGHQ0hbwyn-cSJ5vNgxJ-9" target="WGHQ0hbwyn-cSJ5vNgxJ-28">
          <mxGeometry relative="1" as="geometry" />
        </mxCell>
        <mxCell id="WGHQ0hbwyn-cSJ5vNgxJ-39" style="edgeStyle=orthogonalEdgeStyle;rounded=0;orthogonalLoop=1;jettySize=auto;html=1;exitX=0.5;exitY=1;exitDx=0;exitDy=0;entryX=0;entryY=0.5;entryDx=0;entryDy=0;" edge="1" parent="1" source="WGHQ0hbwyn-cSJ5vNgxJ-9" target="WGHQ0hbwyn-cSJ5vNgxJ-38">
          <mxGeometry relative="1" as="geometry" />
        </mxCell>
        <mxCell id="WGHQ0hbwyn-cSJ5vNgxJ-9" value="从window读取配置" style="rounded=1;whiteSpace=wrap;html=1;" vertex="1" parent="1">
          <mxGeometry x="210" y="720" width="120" height="60" as="geometry" />
        </mxCell>
        <mxCell id="WGHQ0hbwyn-cSJ5vNgxJ-10" value="define plugin&lt;br&gt;process.env上挂载" style="rounded=1;whiteSpace=wrap;html=1;" vertex="1" parent="1">
          <mxGeometry x="586.5" y="230" width="120" height="60" as="geometry" />
        </mxCell>
        <mxCell id="WGHQ0hbwyn-cSJ5vNgxJ-13" value="css less配置 modifyVars&lt;br&gt;ant-prefix" style="rounded=1;whiteSpace=wrap;html=1;" vertex="1" parent="1">
          <mxGeometry x="586.5" y="360" width="120" height="60" as="geometry" />
        </mxCell>
        <mxCell id="WGHQ0hbwyn-cSJ5vNgxJ-25" style="edgeStyle=orthogonalEdgeStyle;rounded=0;orthogonalLoop=1;jettySize=auto;html=1;exitX=1;exitY=0.5;exitDx=0;exitDy=0;entryX=0;entryY=0.5;entryDx=0;entryDy=0;" edge="1" parent="1" source="WGHQ0hbwyn-cSJ5vNgxJ-17" target="WGHQ0hbwyn-cSJ5vNgxJ-24">
          <mxGeometry relative="1" as="geometry" />
        </mxCell>
        <mxCell id="WGHQ0hbwyn-cSJ5vNgxJ-17" value="antd 动态主题&lt;br&gt;antdv 3 / antd 4 configProvider" style="rounded=1;whiteSpace=wrap;html=1;" vertex="1" parent="1">
          <mxGeometry x="600" y="450" width="120" height="60" as="geometry" />
        </mxCell>
        <mxCell id="WGHQ0hbwyn-cSJ5vNgxJ-18" value="" style="shape=curlyBracket;whiteSpace=wrap;html=1;rounded=1;" vertex="1" parent="1">
          <mxGeometry x="560" y="475" width="20" height="175" as="geometry" />
        </mxCell>
        <mxCell id="WGHQ0hbwyn-cSJ5vNgxJ-23" style="edgeStyle=orthogonalEdgeStyle;rounded=0;orthogonalLoop=1;jettySize=auto;html=1;exitX=1;exitY=0.5;exitDx=0;exitDy=0;entryX=0;entryY=0.5;entryDx=0;entryDy=0;" edge="1" parent="1" source="WGHQ0hbwyn-cSJ5vNgxJ-19" target="WGHQ0hbwyn-cSJ5vNgxJ-22">
          <mxGeometry relative="1" as="geometry" />
        </mxCell>
        <mxCell id="WGHQ0hbwyn-cSJ5vNgxJ-19" value="provider 全局注入配置" style="rounded=1;whiteSpace=wrap;html=1;" vertex="1" parent="1">
          <mxGeometry x="600" y="530" width="120" height="60" as="geometry" />
        </mxCell>
        <mxCell id="WGHQ0hbwyn-cSJ5vNgxJ-20" value="本工程初始化" style="rounded=1;whiteSpace=wrap;html=1;" vertex="1" parent="1">
          <mxGeometry x="420" y="532.5" width="120" height="60" as="geometry" />
        </mxCell>
        <mxCell id="WGHQ0hbwyn-cSJ5vNgxJ-22" value="解决父组件参数传递问题&lt;br&gt;组件扩展配置参数" style="text;html=1;strokeColor=#82b366;fillColor=#d5e8d4;align=left;verticalAlign=middle;whiteSpace=wrap;rounded=0;" vertex="1" parent="1">
          <mxGeometry x="810" y="545" width="200" height="30" as="geometry" />
        </mxCell>
        <mxCell id="WGHQ0hbwyn-cSJ5vNgxJ-24" value="需要升级industry/smartWeb/chat-vue到vue3 antdv3，存在坑&lt;br&gt;风险：样式会有局部变化&lt;br&gt;好处：react和vue的样式会统一、实现类似antd pro 的主题配置热更新效果" style="text;html=1;strokeColor=#b85450;fillColor=#f8cecc;align=left;verticalAlign=middle;whiteSpace=wrap;rounded=0;" vertex="1" parent="1">
          <mxGeometry x="800" y="410" width="200" height="107.5" as="geometry" />
        </mxCell>
        <mxCell id="WGHQ0hbwyn-cSJ5vNgxJ-34" style="edgeStyle=orthogonalEdgeStyle;rounded=0;orthogonalLoop=1;jettySize=auto;html=1;exitX=1;exitY=0.5;exitDx=0;exitDy=0;entryX=0;entryY=0.5;entryDx=0;entryDy=0;" edge="1" parent="1" source="WGHQ0hbwyn-cSJ5vNgxJ-27" target="WGHQ0hbwyn-cSJ5vNgxJ-33">
          <mxGeometry relative="1" as="geometry" />
        </mxCell>
        <mxCell id="WGHQ0hbwyn-cSJ5vNgxJ-27" value="功能开关&lt;br&gt;main.ts 初始化是关闭" style="rounded=1;whiteSpace=wrap;html=1;" vertex="1" parent="1">
          <mxGeometry x="600" y="610" width="120" height="60" as="geometry" />
        </mxCell>
        <mxCell id="WGHQ0hbwyn-cSJ5vNgxJ-40" style="edgeStyle=orthogonalEdgeStyle;rounded=0;orthogonalLoop=1;jettySize=auto;html=1;exitX=1;exitY=0.5;exitDx=0;exitDy=0;entryX=0;entryY=0.5;entryDx=0;entryDy=0;" edge="1" parent="1" source="WGHQ0hbwyn-cSJ5vNgxJ-28" target="WGHQ0hbwyn-cSJ5vNgxJ-35">
          <mxGeometry relative="1" as="geometry" />
        </mxCell>
        <mxCell id="WGHQ0hbwyn-cSJ5vNgxJ-28" value="npm组件定制" style="rounded=1;whiteSpace=wrap;html=1;" vertex="1" parent="1">
          <mxGeometry x="414" y="720" width="120" height="60" as="geometry" />
        </mxCell>
        <mxCell id="WGHQ0hbwyn-cSJ5vNgxJ-31" value="目前私有化服务器使用nginx分发，运行时无法动态拉取配置，替换window的配置，可以延后实现" style="text;html=1;strokeColor=#b85450;fillColor=#f8cecc;align=left;verticalAlign=middle;whiteSpace=wrap;rounded=0;" vertex="1" parent="1">
          <mxGeometry x="280" y="32.5" width="200" height="75" as="geometry" />
        </mxCell>
        <mxCell id="WGHQ0hbwyn-cSJ5vNgxJ-33" value="开发配置必须提取到main.ts，集中管理" style="text;html=1;strokeColor=#82b366;fillColor=#d5e8d4;align=left;verticalAlign=middle;whiteSpace=wrap;rounded=0;" vertex="1" parent="1">
          <mxGeometry x="810" y="625" width="200" height="30" as="geometry" />
        </mxCell>
        <mxCell id="WGHQ0hbwyn-cSJ5vNgxJ-35" value="父组件传递参数&lt;br&gt;组件扩展参数能力" style="rounded=1;whiteSpace=wrap;html=1;" vertex="1" parent="1">
          <mxGeometry x="601" y="720" width="120" height="60" as="geometry" />
        </mxCell>
        <mxCell id="WGHQ0hbwyn-cSJ5vNgxJ-36" value="liantong.css&lt;br&gt;liantong.json" style="rounded=1;whiteSpace=wrap;html=1;dashed=1;" vertex="1" parent="1">
          <mxGeometry x="90" y="270" width="120" height="60" as="geometry" />
        </mxCell>
        <mxCell id="WGHQ0hbwyn-cSJ5vNgxJ-43" style="edgeStyle=orthogonalEdgeStyle;rounded=0;orthogonalLoop=1;jettySize=auto;html=1;exitX=1;exitY=0.5;exitDx=0;exitDy=0;entryX=0;entryY=0.5;entryDx=0;entryDy=0;dashed=1;" edge="1" parent="1" source="WGHQ0hbwyn-cSJ5vNgxJ-38" target="WGHQ0hbwyn-cSJ5vNgxJ-42">
          <mxGeometry relative="1" as="geometry" />
        </mxCell>
        <mxCell id="WGHQ0hbwyn-cSJ5vNgxJ-38" value="iframe 快速验证" style="rounded=1;whiteSpace=wrap;html=1;" vertex="1" parent="1">
          <mxGeometry x="420" y="880" width="120" height="60" as="geometry" />
        </mxCell>
        <mxCell id="WGHQ0hbwyn-cSJ5vNgxJ-41" value="私有化场景私有化构建即可满足，不需要" style="ellipse;shape=cloud;whiteSpace=wrap;html=1;dashed=1;fillColor=#fad9d5;strokeColor=#ae4132;" vertex="1" parent="1">
          <mxGeometry x="770" y="830" width="120" height="80" as="geometry" />
        </mxCell>
        <mxCell id="WGHQ0hbwyn-cSJ5vNgxJ-42" value="url params config_id&lt;br&gt;传递配置ID" style="rounded=1;whiteSpace=wrap;html=1;" vertex="1" parent="1">
          <mxGeometry x="600" y="880" width="120" height="60" as="geometry" />
        </mxCell>
        <mxCell id="WGHQ0hbwyn-cSJ5vNgxJ-44" value="未来实时主题预览需要" style="ellipse;shape=cloud;whiteSpace=wrap;html=1;dashed=1;fillColor=#fad9d5;strokeColor=#ae4132;" vertex="1" parent="1">
          <mxGeometry x="770" y="920" width="120" height="80" as="geometry" />
        </mxCell>
        <mxCell id="WGHQ0hbwyn-cSJ5vNgxJ-45" value="" style="shape=curlyBracket;whiteSpace=wrap;html=1;rounded=1;size=0.5;" vertex="1" parent="1">
          <mxGeometry x="740" y="856.25" width="20" height="107.5" as="geometry" />
        </mxCell>
        <mxCell id="WGHQ0hbwyn-cSJ5vNgxJ-46" value="深层优化" style="text;html=1;strokeColor=#0e8088;fillColor=#b0e3e6;align=center;verticalAlign=middle;whiteSpace=wrap;rounded=0;dashed=1;" vertex="1" parent="1">
          <mxGeometry x="40" y="990" width="60" height="30" as="geometry" />
        </mxCell>
      </root>
    </mxGraphModel>
  </diagram>
</mxfile>
